<svg width="25" height="21" viewBox="0 0 25 21" fill="none" xmlns="http://www.w3.org/2000/svg">
<path d="M21.3807 3.55904C20.8676 3.06478 20.2583 2.6727 19.5878 2.40519C18.9172 2.13769 18.1985 2 17.4727 2C16.7468 2 16.0281 2.13769 15.3576 2.40519C14.687 2.6727 14.0778 3.06478 13.5646 3.55904L12.4997 4.58433L11.4348 3.55904C10.3983 2.56114 8.99258 2.00052 7.52679 2.00052C6.06099 2.00052 4.65523 2.56114 3.61876 3.55904C2.58229 4.55695 2 5.9104 2 7.32165C2 8.7329 2.58229 10.0864 3.61876 11.0843L4.68367 12.1095L12.4997 19.6348L20.3158 12.1095L21.3807 11.0843C21.8941 10.5902 22.3013 10.0037 22.5791 9.35806C22.857 8.71246 23 8.02048 23 7.32165C23 6.62282 22.857 5.93084 22.5791 5.28524C22.3013 4.63964 21.8941 4.05307 21.3807 3.55904V3.55904Z" stroke="#151515" stroke-width="2.5" stroke-linecap="round" stroke-linejoin="round"/>
</svg>
