<svg width="85" height="85" viewBox="0 0 85 85" fill="none" xmlns="http://www.w3.org/2000/svg">
<path fill-rule="evenodd" clip-rule="evenodd" d="M25.8598 6.2963C23.9436 6.2963 22.1459 7.00877 20.8526 8.21583C19.5666 9.41604 18.8889 10.9955 18.8889 12.5926C18.8889 14.1896 19.5666 15.7691 20.8526 16.9694C22.1459 18.1764 23.9436 18.8889 25.8598 18.8889H39.804C39.2636 17.471 38.5289 15.8228 37.5672 14.1909C35.0191 9.86687 31.3021 6.2963 25.8598 6.2963ZM12.5926 12.5926C12.5926 14.8387 13.2227 17.0036 14.3689 18.8889H3.14815C1.40947 18.8889 0 20.2984 0 22.037V40.9259C0 42.6646 1.40947 44.0741 3.14815 44.0741H6.2963V66.1111C6.2963 76.5432 14.7531 85 25.1852 85H31.4815C33.2202 85 34.6296 83.5905 34.6296 81.8519C34.6296 80.1132 33.2202 78.7037 31.4815 78.7037H25.1852C18.2305 78.7037 12.5926 73.0658 12.5926 66.1111V44.0741H40.9259V81.8519C40.9259 83.5905 42.3354 85 44.0741 85H59.8148C70.2469 85 78.7037 76.5432 78.7037 66.1111V40.9259C78.7037 39.1873 77.2942 37.7778 75.5556 37.7778H47.2222V25.1852H60.2645H78.7037V31.4815C78.7037 33.2202 80.1132 34.6296 81.8519 34.6296C83.5905 34.6296 85 33.2202 85 31.4815V22.037C85 20.2984 83.5905 18.8889 81.8519 18.8889H70.7813C71.842 16.9828 72.4074 14.8118 72.4074 12.5926C72.4074 9.30105 71.1636 6.11526 68.9045 3.74323C66.6404 1.36597 63.536 0 60.2645 0C52.1387 0 47.2801 6.12668 44.6584 11.1318C44.3911 11.642 44.1412 12.1509 43.9078 12.6539C43.6246 12.1061 43.3196 11.5508 42.9917 10.9943C39.9743 5.87387 34.5841 0 25.8598 0C22.4085 0 19.0586 1.2776 16.5565 3.61289C14.0471 5.95504 12.5926 9.18 12.5926 12.5926ZM48.1991 18.8889H60.2645C61.7642 18.8889 63.2355 18.2648 64.3451 17.0997C65.4597 15.9294 66.1111 14.3107 66.1111 12.5926C66.1111 10.8745 65.4597 9.25581 64.3451 8.0855C63.2355 6.9204 61.7642 6.2963 60.2645 6.2963C55.7978 6.2963 52.5612 9.61406 50.2358 14.0534C49.3546 15.7356 48.6861 17.4366 48.1991 18.8889ZM25.8598 25.1852H40.9259V37.7778H9.44444H6.2963V25.1852H25.8598Z" fill="black"/>
</svg>
