<?xml version="1.0" encoding="utf-8"?><svg width="227" height="22" viewBox="0 0 227 22" fill="none" xmlns="http://www.w3.org/2000/svg">
<path fill-rule="evenodd" clip-rule="evenodd" d="M55.2662 11.523C53.5649 11.2083 52.1738 10.8659 51.093 10.4957C50.0322 10.107 49.1915 9.58871 48.571 8.94086C47.9706 8.27449 47.6703 7.42302 47.6703 6.38645C47.6703 5.31286 47.9706 4.36885 48.571 3.5544C49.1915 2.73995 50.0522 2.11061 51.153 1.66637C52.2739 1.22212 53.5649 1 55.026 1C56.4271 1 57.7081 1.27765 58.869 1.83296C60.0499 2.36975 60.9807 3.12867 61.6612 4.10971C62.3417 5.09074 62.682 6.21061 62.682 7.4693H61.5711C61.5711 6.3772 61.2809 5.41467 60.7004 4.58172C60.12 3.74876 59.3294 3.11016 58.3286 2.66591C57.3278 2.20316 56.217 1.97178 54.996 1.97178C53.9152 1.97178 52.9044 2.12912 51.9637 2.44379C51.0229 2.75846 50.2523 3.23973 49.6519 3.88758C49.0714 4.53544 48.7812 5.34988 48.7812 6.33092C48.7812 7.21941 49.0614 7.93205 49.6218 8.46884C50.1823 8.98713 50.9128 9.3851 51.8135 9.66275C52.7142 9.9404 53.9752 10.2366 55.5965 10.5512C57.2378 10.8659 58.5088 11.1713 59.4094 11.4675C60.3302 11.7451 61.1008 12.2171 61.7212 12.8835C62.3617 13.5499 62.682 14.4846 62.682 15.6878C62.682 16.891 62.3317 17.909 61.6312 18.742C60.9506 19.5564 60.0399 20.1673 58.899 20.5745C57.7582 20.9817 56.5172 21.1853 55.1762 21.1853C53.5149 21.1853 52.0537 20.8984 50.7928 20.3246C49.5318 19.7508 48.561 18.9456 47.8805 17.909C47.22 16.8539 46.8897 15.6508 46.8897 14.2995H48.0006C48.0006 15.4842 48.2808 16.5208 48.8412 17.4093C49.4217 18.2977 50.2523 18.9919 51.3332 19.4916C52.414 19.9729 53.695 20.2135 55.1762 20.2135C57.0176 20.2135 58.5388 19.8063 59.7397 18.9919C60.9607 18.1774 61.5711 17.0668 61.5711 15.66C61.5711 14.6975 61.3109 13.9571 60.7905 13.4388C60.2701 12.9205 59.6096 12.5503 58.809 12.3282C58.0284 12.0876 56.8475 11.8192 55.2662 11.523ZM5.86378 2.9991C7.02468 2.36975 8.27565 2.05508 9.6167 2.05508C11.9185 2.05508 13.7399 2.70293 15.0809 3.99864C15.6214 4.53544 16.0617 5.13702 16.402 5.80338C16.7622 6.46975 16.9524 7.14537 16.9724 7.83025H18.0532C18.0532 7.03431 17.8531 6.24763 17.4528 5.4702C17.0725 4.69277 16.5721 3.98939 15.9516 3.36004C15.191 2.60113 14.2703 2.02731 13.1895 1.6386C12.1086 1.23138 10.9177 1.02777 9.6167 1.02777C8.05548 1.02777 6.61436 1.38871 5.29334 2.11061C3.97231 2.81399 2.92149 3.77652 2.14089 4.99819C1.3803 6.21986 1 7.55259 1 8.99638V12.6614C1 14.0867 1.24019 15.3176 1.72056 16.3542C2.38107 17.8165 3.42188 18.9919 4.84299 19.8804C6.28411 20.7503 7.87534 21.1853 9.6167 21.1853C11.4581 21.1853 13.1094 20.7226 14.5705 19.7971C16.0317 18.8715 17.0725 17.6406 17.693 16.1043C18.0733 15.1788 18.2634 14.1237 18.2634 12.939V11.1065H9.1063V20.1302C7.68519 20.0377 6.4042 19.612 5.26331 18.853C4.12243 18.0941 3.27177 17.1131 2.71133 15.9099C2.31102 15.0585 2.11086 13.9756 2.11086 12.6614V8.99638C2.11086 7.73769 2.45113 6.58081 3.13166 5.52573C3.81219 4.45214 4.72289 3.60993 5.86378 2.9991ZM10.1871 12.1061H17.1526V12.939C17.1526 14.0311 16.9724 15.0122 16.6121 15.8822C16.0717 17.1223 15.2211 18.1219 14.0601 18.8808C12.9193 19.6212 11.6283 20.0377 10.1871 20.1302V12.1061ZM32.8918 1.44424H31.7209L23.1342 20.7688H24.3051L27.1574 14.3828H37.4554L40.2775 20.7688H41.4785L32.8918 1.44424ZM37.005 13.3833H27.6077L32.2913 2.77698L37.005 13.3833ZM85.777 2.47156V1.44424H68.9039V2.47156H76.8V20.7688H77.8808V2.47156H85.777ZM104.398 2.08284C105.599 2.60113 106.54 3.3693 107.221 4.38736C107.921 5.40542 108.271 6.53453 108.271 7.77471C108.271 9.21851 107.791 10.5142 106.83 11.6618C105.89 12.791 104.679 13.5406 103.198 13.9108L108.512 20.7688H107.191L102.057 14.1052L101.096 14.133H93.56V20.7688H92.4492V1.44424H100.405C101.286 1.44424 102.037 1.49977 102.657 1.61083C103.298 1.70338 103.878 1.86072 104.398 2.08284ZM101.396 13.1056C102.437 13.1056 103.398 12.865 104.278 12.3837C105.159 11.9025 105.86 11.2546 106.38 10.4402C106.9 9.62573 107.161 8.73724 107.161 7.77471C107.161 6.70113 106.85 5.72934 106.23 4.85937C105.629 3.98939 104.789 3.34153 103.708 2.9158C102.927 2.61964 101.826 2.47156 100.405 2.47156H93.56V13.1056H101.396ZM126.713 2.11061C125.392 1.38871 123.951 1.02777 122.389 1.02777C120.828 1.02777 119.387 1.38871 118.066 2.11061C116.745 2.81399 115.694 3.77652 114.914 4.99819C114.153 6.21986 113.773 7.55259 113.773 8.99638V13.2167C113.773 14.6605 114.153 15.9932 114.914 17.2149C115.694 18.4366 116.745 19.4083 118.066 20.1302C119.387 20.8336 120.828 21.1853 122.389 21.1853C123.951 21.1853 125.392 20.8336 126.713 20.1302C128.034 19.4083 129.075 18.4366 129.835 17.2149C130.616 15.9932 131.006 14.6605 131.006 13.2167V8.99638C131.006 7.55259 130.616 6.21986 129.835 4.99819C129.075 3.77652 128.034 2.81399 126.713 2.11061ZM115.874 16.7151C115.214 15.6415 114.884 14.4754 114.884 13.2167V8.99638C114.884 7.73769 115.214 6.58081 115.874 5.52573C116.555 4.45214 117.466 3.60993 118.607 2.9991C119.767 2.36975 121.028 2.05508 122.389 2.05508C123.751 2.05508 125.001 2.36975 126.142 2.9991C127.303 3.60993 128.214 4.45214 128.875 5.52573C129.555 6.58081 129.895 7.73769 129.895 8.99638V13.2167C129.895 14.4754 129.555 15.6415 128.875 16.7151C128.214 17.7702 127.303 18.6124 126.142 19.2418C125.001 19.8526 123.751 20.158 122.389 20.158C121.028 20.158 119.767 19.8526 118.607 19.2418C117.466 18.6124 116.555 17.7702 115.874 16.7151ZM136.748 20.7688V1.44424H137.919L152.51 14.5494V1.44424H153.621V20.7688H152.51V15.9932L137.859 2.77698V20.7688H136.748ZM171.762 2.11061C170.441 1.38871 169 1.02777 167.439 1.02777C165.877 1.02777 164.436 1.38871 163.115 2.11061C161.794 2.81399 160.743 3.77652 159.963 4.99819C159.202 6.21986 158.822 7.55259 158.822 8.99638V13.2167C158.822 14.6605 159.202 15.9932 159.963 17.2149C160.743 18.4366 161.794 19.4083 163.115 20.1302C164.436 20.8336 165.877 21.1853 167.439 21.1853C169 21.1853 170.441 20.8336 171.762 20.1302C173.083 19.4083 174.124 18.4366 174.884 17.2149C175.665 15.9932 176.055 14.6605 176.055 13.2167V8.99638C176.055 7.55259 175.665 6.21986 174.884 4.99819C174.124 3.77652 173.083 2.81399 171.762 2.11061ZM160.923 16.7151C160.263 15.6415 159.933 14.4754 159.933 13.2167V8.99638C159.933 7.73769 160.263 6.58081 160.923 5.52573C161.604 4.45214 162.515 3.60993 163.656 2.9991C164.816 2.36975 166.077 2.05508 167.439 2.05508C168.8 2.05508 170.051 2.36975 171.191 2.9991C172.352 3.60993 173.263 4.45214 173.924 5.52573C174.604 6.58081 174.944 7.73769 174.944 8.99638V13.2167C174.944 14.4754 174.604 15.6415 173.924 16.7151C173.263 17.7702 172.352 18.6124 171.191 19.2418C170.051 19.8526 168.8 20.158 167.439 20.158C166.077 20.158 164.816 19.8526 163.656 19.2418C162.515 18.6124 161.604 17.7702 160.923 16.7151ZM188.644 20.7688H187.533V1.44424H188.734L196.03 13.3555L203.295 1.44424H204.406V20.7688H203.295V3.49887L196.54 14.5217H195.489L188.644 3.36004V20.7688ZM226 1.44424H211.289V20.7688H226V19.7415H212.399V11.3287H224.229V10.3014H212.399V2.47156H226V1.44424ZM181.2 1.51831H182.401V6.70116H181.2V1.51831Z" fill="black"/>
<path d="M51.093 10.4957L50.9209 10.9653L50.931 10.9687L51.093 10.4957ZM55.2662 11.523L55.3583 11.0316L55.3572 11.0314L55.2662 11.523ZM48.571 8.94086L48.1996 9.27556L48.2047 9.28121L48.2099 9.2867L48.571 8.94086ZM48.571 3.5544L48.1732 3.25136L48.1686 3.25769L48.571 3.5544ZM51.153 1.66637L50.9688 1.20153L50.9659 1.2027L51.153 1.66637ZM58.869 1.83296L58.6532 2.2841L58.6621 2.28814L58.869 1.83296ZM61.6612 4.10971L62.072 3.82472V3.82472L61.6612 4.10971ZM62.682 7.4693V7.9693H63.182V7.4693H62.682ZM61.5711 7.4693H61.0711V7.9693H61.5711V7.4693ZM60.7004 4.58172L61.1107 4.29585V4.29585L60.7004 4.58172ZM58.3286 2.66591L58.1187 3.1198L58.1257 3.12291L58.3286 2.66591ZM49.6519 3.88758L49.2851 3.54765L49.2795 3.55393L49.6519 3.88758ZM49.6218 8.46884L49.2759 8.82999L49.2824 8.83593L49.6218 8.46884ZM51.8135 9.66275L51.6663 10.1406H51.6663L51.8135 9.66275ZM55.5965 10.5512L55.5012 11.0421L55.5023 11.0423L55.5965 10.5512ZM59.4094 11.4675L59.2532 11.9426L59.2651 11.9462L59.4094 11.4675ZM61.7212 12.8835L61.3553 13.2243L61.3608 13.23L61.7212 12.8835ZM61.6312 18.742L61.2485 18.4202L61.2475 18.4214L61.6312 18.742ZM58.899 20.5745L59.0671 21.0454L58.899 20.5745ZM47.8805 17.909L47.4566 18.1744L47.4625 18.1834L47.8805 17.909ZM46.8897 14.2995V13.7995H46.3897V14.2995H46.8897ZM48.0006 14.2995H48.5006V13.7995H48.0006V14.2995ZM48.8412 17.4093L48.4183 17.676L48.4226 17.6827L48.8412 17.4093ZM51.3332 19.4916L51.1233 19.9455L51.1298 19.9484L51.3332 19.4916ZM59.7397 18.9919L59.4622 18.5759L59.4591 18.5781L59.7397 18.9919ZM60.7905 13.4388L60.4377 13.7931H60.4377L60.7905 13.4388ZM58.809 12.3282L58.6617 12.806L58.6685 12.8081L58.6753 12.81L58.809 12.3282ZM5.86378 2.9991L6.09979 3.4399L6.10207 3.43866L5.86378 2.9991ZM15.0809 3.99864L15.4333 3.64387L15.4284 3.63906L15.0809 3.99864ZM16.402 5.80338L15.9565 6.03083L15.9621 6.04118L16.402 5.80338ZM16.9724 7.83025L16.4726 7.84485L16.4868 8.33025H16.9724V7.83025ZM18.0532 7.83025V8.33025H18.5532V7.83025H18.0532ZM17.4528 5.4702L17.0035 5.68996L17.0083 5.6991L17.4528 5.4702ZM15.9516 3.36004L16.3077 3.00899L16.3048 3.0061L15.9516 3.36004ZM13.1895 1.6386L13.0132 2.10655L13.0203 2.1091L13.1895 1.6386ZM5.29334 2.11061L5.52834 2.55197L5.5331 2.54937L5.29334 2.11061ZM2.14089 4.99819L1.71952 4.72896L1.71643 4.73393L2.14089 4.99819ZM1.72056 16.3542L2.17625 16.1483L2.17421 16.1439L1.72056 16.3542ZM4.84299 19.8804L4.57789 20.3044L4.58458 20.3084L4.84299 19.8804ZM14.5705 19.7971L14.8381 20.2195H14.8381L14.5705 19.7971ZM17.693 16.1043L17.2305 15.9142L17.2294 15.917L17.693 16.1043ZM18.2634 11.1065H18.7634V10.6065H18.2634V11.1065ZM9.1063 11.1065V10.6065H8.6063V11.1065H9.1063ZM9.1063 20.1302L9.0738 20.6292L9.6063 20.6639V20.1302H9.1063ZM5.26331 18.853L5.54024 18.4367H5.54024L5.26331 18.853ZM2.71133 15.9099L3.16457 15.6988L3.16382 15.6972L2.71133 15.9099ZM3.13166 5.52573L3.55185 5.79676L3.55396 5.79342L3.13166 5.52573ZM17.1526 12.1061H17.6526V11.6061H17.1526V12.1061ZM10.1871 12.1061V11.6061H9.68714V12.1061H10.1871ZM16.6121 15.8822L17.0706 16.0819L17.0741 16.0735L16.6121 15.8822ZM14.0601 18.8808L14.3323 19.3002L14.3337 19.2993L14.0601 18.8808ZM10.1871 20.1302H9.68714V20.6634L10.2192 20.6292L10.1871 20.1302ZM31.7209 1.44424V0.944242H31.3959L31.264 1.24121L31.7209 1.44424ZM32.8918 1.44424L33.3487 1.24121L33.2168 0.944242H32.8918V1.44424ZM23.1342 20.7688L22.6773 20.5658L22.3649 21.2688H23.1342V20.7688ZM24.3051 20.7688V21.2688H24.6294L24.7617 20.9727L24.3051 20.7688ZM27.1574 14.3828V13.8828H26.8331L26.7008 14.1789L27.1574 14.3828ZM37.4554 14.3828L37.9127 14.1807L37.781 13.8828H37.4554V14.3828ZM40.2775 20.7688L39.8202 20.9709L39.9519 21.2688H40.2775V20.7688ZM41.4785 20.7688V21.2688H42.2478L41.9354 20.5658L41.4785 20.7688ZM27.6077 13.3833L27.1503 13.1813L26.8403 13.8833H27.6077V13.3833ZM37.005 13.3833V13.8833H37.7744L37.4619 13.1802L37.005 13.3833ZM32.2913 2.77698L32.7483 2.57392L32.2899 1.54253L31.834 2.575L32.2913 2.77698ZM85.777 1.44424H86.277V0.944242H85.777V1.44424ZM85.777 2.47156V2.97156H86.277V2.47156H85.777ZM68.9039 1.44424V0.944242H68.4039V1.44424H68.9039ZM68.9039 2.47156H68.4039V2.97156H68.9039V2.47156ZM76.8 2.47156H77.3V1.97156H76.8V2.47156ZM76.8 20.7688H76.3V21.2688H76.8V20.7688ZM77.8808 20.7688V21.2688H78.3808V20.7688H77.8808ZM77.8808 2.47156V1.97156H77.3808V2.47156H77.8808ZM107.221 4.38736L106.805 4.66525L106.809 4.67079L107.221 4.38736ZM104.398 2.08284L104.597 1.62377L104.595 1.62298L104.398 2.08284ZM106.83 11.6618L106.447 11.3409L106.446 11.3418L106.83 11.6618ZM103.198 13.9108L103.076 13.4258L102.333 13.6115L102.802 14.2171L103.198 13.9108ZM108.512 20.7688V21.2688H109.532L108.907 20.4626L108.512 20.7688ZM107.191 20.7688L106.795 21.074L106.945 21.2688H107.191V20.7688ZM102.057 14.1052L102.453 13.8L102.297 13.598L102.042 13.6054L102.057 14.1052ZM101.096 14.133V14.633H101.103L101.11 14.6327L101.096 14.133ZM93.56 14.133V13.633H93.06V14.133H93.56ZM93.56 20.7688V21.2688H94.06V20.7688H93.56ZM92.4492 20.7688H91.9492V21.2688H92.4492V20.7688ZM92.4492 1.44424V0.944242H91.9492V1.44424H92.4492ZM102.657 1.61083L102.569 2.10301L102.577 2.10449L102.586 2.10569L102.657 1.61083ZM104.278 12.3837L104.518 12.8225V12.8225L104.278 12.3837ZM106.38 10.4402L106.801 10.7094V10.7094L106.38 10.4402ZM106.23 4.85937L105.818 5.14342L105.823 5.1497L106.23 4.85937ZM103.708 2.9158L103.891 2.45055L103.885 2.44832L103.708 2.9158ZM93.56 2.47156V1.97156H93.06V2.47156H93.56ZM93.56 13.1056H93.06V13.6056H93.56V13.1056ZM126.713 2.11061L126.473 2.54939L126.478 2.55195L126.713 2.11061ZM118.066 2.11061L118.301 2.55197L118.306 2.54937L118.066 2.11061ZM114.914 4.99819L114.492 4.72896L114.489 4.73393L114.914 4.99819ZM114.914 17.2149L114.489 17.4792L114.492 17.4841L114.914 17.2149ZM118.066 20.1302L117.826 20.569L117.831 20.5716L118.066 20.1302ZM126.713 20.1302L126.948 20.5716L126.953 20.569L126.713 20.1302ZM129.835 17.2149L129.414 16.9457L129.411 16.9506L129.835 17.2149ZM129.835 4.99819L129.411 5.26247L129.414 5.26741L129.835 4.99819ZM115.874 16.7151L115.448 16.9772L115.454 16.9861L115.874 16.7151ZM115.874 5.52573L115.452 5.25803L115.451 5.26042L115.874 5.52573ZM118.607 2.9991L118.843 3.4399L118.845 3.43866L118.607 2.9991ZM126.142 2.9991L125.901 3.43699L125.91 3.44158L126.142 2.9991ZM128.875 5.52573L128.449 5.78779L128.454 5.79675L128.875 5.52573ZM128.875 16.7151L128.452 16.4474L128.451 16.4498L128.875 16.7151ZM126.142 19.2418L126.378 19.6826L126.381 19.6813L126.142 19.2418ZM118.607 19.2418L118.365 19.6796L118.374 19.6842L118.607 19.2418ZM136.748 1.44424V0.944242H136.248V1.44424H136.748ZM136.748 20.7688H136.248V21.2688H136.748V20.7688ZM137.919 1.44424L138.253 1.07225L138.11 0.944242H137.919V1.44424ZM152.51 14.5494L152.176 14.9214L153.01 15.6706V14.5494H152.51ZM152.51 1.44424V0.944242H152.01V1.44424H152.51ZM153.621 1.44424H154.121V0.944242H153.621V1.44424ZM153.621 20.7688V21.2688H154.121V20.7688H153.621ZM152.51 20.7688H152.01V21.2688H152.51V20.7688ZM152.51 15.9932H153.01V15.7709L152.845 15.622L152.51 15.9932ZM137.859 2.77698L138.193 2.40571L137.359 1.65259V2.77698H137.859ZM137.859 20.7688V21.2688H138.359V20.7688H137.859ZM171.762 2.11061L171.522 2.54939L171.527 2.55194L171.762 2.11061ZM163.115 2.11061L163.35 2.55197L163.355 2.54937L163.115 2.11061ZM159.963 4.99819L159.541 4.72896L159.538 4.73393L159.963 4.99819ZM159.963 17.2149L159.538 17.4792L159.541 17.4841L159.963 17.2149ZM163.115 20.1302L162.875 20.569L162.88 20.5716L163.115 20.1302ZM171.762 20.1302L171.997 20.5716L172.002 20.569L171.762 20.1302ZM174.884 17.2149L174.463 16.9457L174.46 16.9506L174.884 17.2149ZM174.884 4.99819L174.46 5.26247L174.463 5.26741L174.884 4.99819ZM160.923 16.7151L160.498 16.9772L160.503 16.9861L160.923 16.7151ZM160.923 5.52573L160.501 5.25804L160.5 5.26042L160.923 5.52573ZM163.656 2.9991L163.892 3.4399L163.894 3.43866L163.656 2.9991ZM171.191 2.9991L170.95 3.43699L170.959 3.44158L171.191 2.9991ZM173.924 5.52573L173.498 5.7878L173.503 5.79675L173.924 5.52573ZM173.924 16.7151L173.501 16.4474L173.5 16.4498L173.924 16.7151ZM171.191 19.2418L171.427 19.6826L171.43 19.6813L171.191 19.2418ZM163.656 19.2418L163.414 19.6796L163.423 19.6842L163.656 19.2418ZM187.533 20.7688H187.033V21.2688H187.533V20.7688ZM188.644 20.7688V21.2688H189.144V20.7688H188.644ZM187.533 1.44424V0.944242H187.033V1.44424H187.533ZM188.734 1.44424L189.16 1.18309L189.014 0.944242H188.734V1.44424ZM196.03 13.3555L195.603 13.6167L196.031 14.3142L196.457 13.6159L196.03 13.3555ZM203.295 1.44424V0.944242H203.015L202.868 1.18387L203.295 1.44424ZM204.406 1.44424H204.906V0.944242H204.406V1.44424ZM204.406 20.7688V21.2688H204.906V20.7688H204.406ZM203.295 20.7688H202.795V21.2688H203.295V20.7688ZM203.295 3.49887H203.795V1.7261L202.869 3.23761L203.295 3.49887ZM196.54 14.5217V15.0217H196.82L196.966 14.7829L196.54 14.5217ZM195.489 14.5217L195.063 14.7831L195.209 15.0217H195.489V14.5217ZM188.644 3.36004L189.07 3.09864L188.144 1.58838V3.36004H188.644ZM211.289 1.44424V0.944242H210.789V1.44424H211.289ZM226 1.44424H226.5V0.944242H226V1.44424ZM211.289 20.7688H210.789V21.2688H211.289V20.7688ZM226 20.7688V21.2688H226.5V20.7688H226ZM226 19.7415H226.5V19.2415H226V19.7415ZM212.399 19.7415H211.899V20.2415H212.399V19.7415ZM212.399 11.3287V10.8287H211.899V11.3287H212.399ZM224.229 11.3287V11.8287H224.729V11.3287H224.229ZM224.229 10.3014H224.729V9.80135H224.229V10.3014ZM212.399 10.3014H211.899V10.8014H212.399V10.3014ZM212.399 2.47156V1.97156H211.899V2.47156H212.399ZM226 2.47156V2.97156H226.5V2.47156H226ZM182.401 1.51831H182.901V1.01831H182.401V1.51831ZM181.2 1.51831V1.01831H180.7V1.51831H181.2ZM182.401 6.70116V7.20116H182.901V6.70116H182.401ZM181.2 6.70116H180.7V7.20116H181.2V6.70116ZM50.931 10.9687C52.0436 11.3498 53.4608 11.6976 55.1753 12.0147L55.3572 11.0314C53.669 10.7191 52.3041 10.382 51.255 10.0227L50.931 10.9687ZM48.2099 9.2867C48.8951 10.002 49.8066 10.5568 50.921 10.9652L51.265 10.0262C50.2577 9.65714 49.488 9.17537 48.9321 8.59501L48.2099 9.2867ZM47.1703 6.38645C47.1703 7.52614 47.5036 8.50319 48.1996 9.27556L48.9425 8.60615C48.4375 8.04579 48.1703 7.3199 48.1703 6.38645H47.1703ZM48.1686 3.25769C47.5008 4.1635 47.1703 5.21301 47.1703 6.38645H48.1703C48.1703 5.41272 48.4404 4.57419 48.9735 3.85111L48.1686 3.25769ZM50.9659 1.2027C49.7952 1.67514 48.8564 2.35469 48.1733 3.25139L48.9688 3.85741C49.5266 3.12522 50.3092 2.54607 51.3401 2.13003L50.9659 1.2027ZM55.026 0.5C53.5148 0.5 52.1593 0.729704 50.9688 1.20154L51.3373 2.13119C52.3885 1.71454 53.615 1.5 55.026 1.5V0.5ZM59.0848 1.3819C57.8507 0.791595 56.4951 0.5 55.026 0.5V1.5C56.3592 1.5 57.5655 1.76371 58.6533 2.28401L59.0848 1.3819ZM62.072 3.82472C61.3357 2.76325 60.3316 1.94854 59.0759 1.37778L58.6621 2.28814C59.7683 2.79096 60.6256 3.49409 61.2504 4.39469L62.072 3.82472ZM63.182 7.4693C63.182 6.11459 62.8139 4.89413 62.072 3.82472L61.2504 4.39469C61.8696 5.28736 62.182 6.30662 62.182 7.4693H63.182ZM61.5711 7.9693H62.682V6.9693H61.5711V7.9693ZM60.2902 4.86758C60.8077 5.61022 61.0711 6.47128 61.0711 7.4693H62.0711C62.0711 6.28312 61.7541 5.21912 61.1107 4.29585L60.2902 4.86758ZM58.1257 3.12291C59.0499 3.53313 59.7661 4.1154 60.2902 4.86758L61.1107 4.29585C60.4739 3.38211 59.6089 2.68718 58.5315 2.20891L58.1257 3.12291ZM54.996 2.47178C56.1523 2.47178 57.1905 2.69053 58.1187 3.11974L58.5384 2.21208C57.4651 1.71578 56.2816 1.47178 54.996 1.47178V2.47178ZM52.1223 2.91797C53.0075 2.62186 53.9643 2.47178 54.996 2.47178V1.47178C53.8661 1.47178 52.8013 1.63637 51.805 1.96962L52.1223 2.91797ZM50.0186 4.22747C50.5553 3.64838 51.2511 3.20936 52.1223 2.91797L51.805 1.96962C50.7947 2.30757 49.9494 2.83108 49.2852 3.5477L50.0186 4.22747ZM49.2812 6.33092C49.2812 5.45613 49.5366 4.76553 50.0243 4.22123L49.2795 3.55393C48.6062 4.30534 48.2812 5.24364 48.2812 6.33092H49.2812ZM49.9677 8.10776C49.5203 7.67924 49.2812 7.10467 49.2812 6.33092H48.2812C48.2812 7.33415 48.6025 8.18486 49.276 8.82993L49.9677 8.10776ZM51.9608 9.18494C51.1153 8.92428 50.4554 8.5587 49.9613 8.10176L49.2824 8.83593C49.9091 9.41555 50.7104 9.84592 51.6663 10.1406L51.9608 9.18494ZM55.6917 10.0604C54.0771 9.74701 52.8364 9.45483 51.9608 9.18494L51.6663 10.1406C52.5921 10.426 53.8733 10.7261 55.5012 11.0421L55.6917 10.0604ZM59.5656 10.9925C58.6349 10.6865 57.3397 10.3763 55.6906 10.0602L55.5023 11.0423C57.1358 11.3555 58.3826 11.6562 59.2533 11.9425L59.5656 10.9925ZM62.0872 12.5428C61.4029 11.8079 60.5543 11.2905 59.5538 10.9888L59.2651 11.9462C60.106 12.1998 60.7986 12.6264 61.3553 13.2242L62.0872 12.5428ZM63.182 15.6878C63.182 14.3958 62.8363 13.3221 62.0817 12.537L61.3608 13.23C61.8872 13.7777 62.182 14.5735 62.182 15.6878H63.182ZM62.0138 19.0638C62.7983 18.1311 63.182 16.9954 63.182 15.6878H62.182C62.182 16.7865 61.8651 17.687 61.2485 18.4202L62.0138 19.0638ZM59.0671 21.0454C60.2799 20.6125 61.2694 19.9547 62.0149 19.0626L61.2475 18.4214C60.6318 19.1582 59.7999 19.722 58.731 20.1036L59.0671 21.0454ZM55.1762 21.6853C56.5684 21.6853 57.8668 21.4738 59.0671 21.0454L58.731 20.1036C57.6495 20.4896 56.466 20.6853 55.1762 20.6853V21.6853ZM50.5857 20.7797C51.9233 21.3884 53.4574 21.6853 55.1762 21.6853V20.6853C53.5723 20.6853 52.1842 20.4084 50.9998 19.8695L50.5857 20.7797ZM47.4625 18.1834C48.2008 19.308 49.2491 20.1715 50.5857 20.7797L50.9998 19.8695C49.8144 19.3301 48.9212 18.5832 48.2985 17.6346L47.4625 18.1834ZM46.3897 14.2995C46.3897 15.7363 46.7421 17.0329 47.4567 18.1743L48.3043 17.6437C47.6978 16.6749 47.3897 15.5653 47.3897 14.2995H46.3897ZM48.0006 13.7995H46.8897V14.7995H48.0006V13.7995ZM49.2641 17.1425C48.7603 16.3437 48.5006 15.4022 48.5006 14.2995H47.5006C47.5006 15.5662 47.8013 16.6978 48.4183 17.676L49.2641 17.1425ZM51.543 19.0378C50.5366 18.5725 49.7829 17.9365 49.2598 17.1358L48.4226 17.6827C49.0605 18.659 49.9681 19.4113 51.1233 19.9455L51.543 19.0378ZM55.1762 19.7135C53.748 19.7135 52.5394 19.4814 51.5366 19.0349L51.1298 19.9484C52.2886 20.4644 53.642 20.7135 55.1762 20.7135V19.7135ZM59.4591 18.5781C58.3607 19.3229 56.9444 19.7135 55.1762 19.7135V20.7135C57.0908 20.7135 58.7168 20.2897 60.0203 19.4057L59.4591 18.5781ZM61.0711 15.66C61.0711 16.8912 60.5514 17.8494 59.4622 18.5759L60.0172 19.4078C61.3699 18.5054 62.0711 17.2424 62.0711 15.66H61.0711ZM60.4377 13.7931C60.8373 14.1911 61.0711 14.7875 61.0711 15.66H62.0711C62.0711 14.6075 61.7846 13.7231 61.1433 13.0845L60.4377 13.7931ZM58.6753 12.81C59.4042 13.0122 59.9858 13.3431 60.4377 13.7931L61.1433 13.0845C60.5544 12.498 59.815 12.0884 58.9426 11.8464L58.6753 12.81ZM55.1742 12.0145C56.7509 12.3098 57.9092 12.574 58.6617 12.806L58.9563 11.8504C58.1476 11.6011 56.944 11.3286 55.3583 11.0316L55.1742 12.0145ZM9.6167 1.55508C8.19378 1.55508 6.86073 1.88989 5.62548 2.55953L6.10207 3.43866C7.18863 2.84962 8.35753 2.55508 9.6167 2.55508V1.55508ZM15.4284 3.63906C13.9733 2.23323 12.0161 1.55508 9.6167 1.55508V2.55508C11.8209 2.55508 13.5065 3.17264 14.7335 4.35822L15.4284 3.63906ZM16.8473 5.576C16.4825 4.86168 16.0106 4.21728 15.4333 3.6439L14.7286 4.35338C15.2322 4.85359 15.6409 5.41236 15.9567 6.03077L16.8473 5.576ZM17.4722 7.81564C17.4497 7.04475 17.2352 6.29328 16.8418 5.56558L15.9621 6.04118C16.2893 6.64621 16.4551 7.24599 16.4726 7.84485L17.4722 7.81564ZM18.0532 7.33025H16.9724V8.33025H18.0532V7.33025ZM17.0083 5.6991C17.3758 6.41284 17.5532 7.12156 17.5532 7.83025H18.5532C18.5532 6.94705 18.3304 6.08242 17.8973 5.24131L17.0083 5.6991ZM15.5956 3.71108C16.1789 4.30279 16.6476 4.96203 17.0036 5.68991L17.9019 5.25049C17.4974 4.42352 16.9653 3.67599 16.3077 3.00901L15.5956 3.71108ZM13.0203 2.1091C14.0368 2.4747 14.8934 3.0105 15.5985 3.71399L16.3048 3.0061C15.4886 2.19176 14.5038 1.57993 13.3587 1.1681L13.0203 2.1091ZM9.6167 1.52777C10.865 1.52777 11.9954 1.72301 13.0132 2.10649L13.3658 1.17071C12.2219 0.739745 10.9704 0.527766 9.6167 0.527766V1.52777ZM5.5331 2.54937C6.77782 1.86917 8.13605 1.52777 9.6167 1.52777V0.527766C7.97492 0.527766 6.4509 0.90825 5.05357 1.67185L5.5331 2.54937ZM2.56222 5.26741C3.29501 4.12058 4.28062 3.21629 5.52833 2.55194L5.05834 1.66927C3.664 2.4117 2.54798 3.43246 1.71955 4.72897L2.56222 5.26741ZM1.5 8.99638C1.5 7.64568 1.8543 6.40455 2.56535 5.26245L1.71643 4.73393C0.906294 6.03518 0.5 7.4595 0.5 8.99638H1.5ZM1.5 12.6614V8.99638H0.5V12.6614H1.5ZM2.17421 16.1439C1.73096 15.1875 1.5 14.0315 1.5 12.6614H0.5C0.5 14.1418 0.749418 15.4477 1.26691 16.5644L2.17421 16.1439ZM5.10805 19.4564C3.76668 18.6178 2.79426 17.5166 2.17623 16.1483L1.26489 16.56C1.96789 18.1164 3.07708 19.366 4.57792 20.3043L5.10805 19.4564ZM9.6167 20.6853C7.96313 20.6853 6.46177 20.2735 5.10139 19.4523L4.58458 20.3084C6.10644 21.2271 7.78755 21.6853 9.6167 21.6853V20.6853ZM14.303 19.3747C12.9271 20.2462 11.3698 20.6853 9.6167 20.6853V21.6853C11.5465 21.6853 13.2917 21.199 14.8381 20.2195L14.303 19.3747ZM17.2294 15.917C16.6498 17.352 15.6799 18.5025 14.303 19.3747L14.8381 20.2195C16.3834 19.2406 17.4952 17.9293 18.1566 16.2915L17.2294 15.917ZM17.7634 12.939C17.7634 14.0703 17.5819 15.059 17.2305 15.9142L18.1554 16.2943C18.5646 15.2985 18.7634 14.1771 18.7634 12.939H17.7634ZM17.7634 11.1065V12.939H18.7634V11.1065H17.7634ZM9.1063 11.6065H18.2634V10.6065H9.1063V11.6065ZM9.6063 20.1302V11.1065H8.6063V20.1302H9.6063ZM4.98639 19.2693C6.20305 20.0787 7.56898 20.5312 9.0738 20.6292L9.13879 19.6313C7.80141 19.5442 6.60535 19.1452 5.54024 18.4367L4.98639 19.2693ZM2.25809 16.121C2.85862 17.4103 3.77159 18.4613 4.98639 19.2693L5.54024 18.4367C4.47326 17.727 3.68491 16.8159 3.16457 15.6988L2.25809 16.121ZM1.61086 12.6614C1.61086 14.0218 1.81739 15.1837 2.25884 16.1227L3.16382 15.6972C2.80465 14.9332 2.61086 13.9294 2.61086 12.6614H1.61086ZM1.61086 8.99638V12.6614H2.61086V8.99638H1.61086ZM2.71148 5.25471C1.9787 6.3908 1.61086 7.64182 1.61086 8.99638H2.61086C2.61086 7.83357 2.92355 6.77082 3.55183 5.79675L2.71148 5.25471ZM5.62777 2.5583C4.41235 3.20904 3.43689 4.11029 2.70935 5.25804L3.55396 5.79342C4.18748 4.79399 5.03344 4.01082 6.09978 3.43989L5.62777 2.5583ZM17.1526 11.6061H10.1871V12.6061H17.1526V11.6061ZM17.6526 12.939V12.1061H16.6526V12.939H17.6526ZM17.0741 16.0735C17.4632 15.1339 17.6526 14.0864 17.6526 12.939H16.6526C16.6526 13.9759 16.4817 14.8904 16.1502 15.6909L17.0741 16.0735ZM14.3337 19.2993C15.5741 18.4885 16.4901 17.4138 17.0705 16.0819L16.1538 15.6824C15.6533 16.8309 14.868 17.7553 13.7866 18.4623L14.3337 19.2993ZM10.2192 20.6292C11.7404 20.5315 13.1151 20.0902 14.3323 19.3002L13.788 18.4614C12.7234 19.1522 11.5161 19.5439 10.1551 19.6313L10.2192 20.6292ZM9.68714 12.1061V20.1302H10.6871V12.1061H9.68714ZM31.7209 1.94424H32.8918V0.944242H31.7209V1.94424ZM23.5912 20.9719L32.1778 1.64727L31.264 1.24121L22.6773 20.5658L23.5912 20.9719ZM24.3051 20.2688H23.1342V21.2688H24.3051V20.2688ZM26.7008 14.1789L23.8486 20.5649L24.7617 20.9727L27.6139 14.5867L26.7008 14.1789ZM37.4554 13.8828H27.1574V14.8828H37.4554V13.8828ZM40.7349 20.5667L37.9127 14.1807L36.998 14.5849L39.8202 20.9709L40.7349 20.5667ZM41.4785 20.2688H40.2775V21.2688H41.4785V20.2688ZM32.4349 1.64727L41.0216 20.9719L41.9354 20.5658L33.3487 1.24121L32.4349 1.64727ZM27.6077 13.8833H37.005V12.8833H27.6077V13.8833ZM31.834 2.575L27.1503 13.1813L28.0651 13.5853L32.7487 2.97895L31.834 2.575ZM37.4619 13.1802L32.7483 2.57392L31.8344 2.98004L36.5481 13.5864L37.4619 13.1802ZM85.277 1.44424V2.47156H86.277V1.44424H85.277ZM68.9039 1.94424H85.777V0.944242H68.9039V1.94424ZM69.4039 2.47156V1.44424H68.4039V2.47156H69.4039ZM76.8 1.97156H68.9039V2.97156H76.8V1.97156ZM77.3 20.7688V2.47156H76.3V20.7688H77.3ZM77.8808 20.2688H76.8V21.2688H77.8808V20.2688ZM77.3808 2.47156V20.7688H78.3808V2.47156H77.3808ZM85.777 1.97156H77.8808V2.97156H85.777V1.97156ZM107.636 4.10949C106.899 3.0058 105.88 2.17751 104.597 1.62377L104.2 2.54192C105.319 3.02474 106.182 3.73279 106.805 4.66522L107.636 4.10949ZM108.771 7.77471C108.771 6.4337 108.391 5.20568 107.633 4.10392L106.809 4.67079C107.452 5.60515 107.771 6.63537 107.771 7.77471H108.771ZM107.214 11.9828C108.247 10.7488 108.771 9.34046 108.771 7.77471H107.771C107.771 9.09656 107.335 10.2797 106.447 11.3409L107.214 11.9828ZM103.319 14.3959C104.899 14.001 106.203 13.1958 107.214 11.9819L106.446 11.3418C105.576 12.3861 104.459 13.0802 103.076 13.4258L103.319 14.3959ZM108.907 20.4626L103.593 13.6046L102.802 14.2171L108.116 21.0751L108.907 20.4626ZM107.191 21.2688H108.512V20.2688H107.191V21.2688ZM101.661 14.4103L106.795 21.074L107.587 20.4637L102.453 13.8L101.661 14.4103ZM101.11 14.6327L102.071 14.605L102.042 13.6054L101.081 13.6332L101.11 14.6327ZM93.56 14.633H101.096V13.633H93.56V14.633ZM94.06 20.7688V14.133H93.06V20.7688H94.06ZM92.4492 21.2688H93.56V20.2688H92.4492V21.2688ZM91.9492 1.44424V20.7688H92.9492V1.44424H91.9492ZM100.405 0.944242H92.4492V1.94424H100.405V0.944242ZM102.745 1.11866C102.087 1.0008 101.305 0.944242 100.405 0.944242V1.94424C101.267 1.94424 101.986 1.99875 102.569 2.10301L102.745 1.11866ZM104.595 1.62298C104.029 1.38159 103.406 1.21386 102.729 1.11597L102.586 2.10569C103.189 2.19291 103.727 2.33985 104.202 2.54271L104.595 1.62298ZM104.039 11.945C103.234 12.3845 102.356 12.6056 101.396 12.6056V13.6056C102.518 13.6056 103.561 13.3455 104.518 12.8225L104.039 11.945ZM105.959 10.171C105.485 10.9117 104.848 11.5024 104.039 11.945L104.518 12.8225C105.47 12.3025 106.234 11.5975 106.801 10.7094L105.959 10.171ZM106.661 7.77471C106.661 8.64142 106.428 9.43656 105.959 10.171L106.801 10.7094C107.373 9.8149 107.661 8.83306 107.661 7.77471H106.661ZM105.823 5.1497C106.383 5.9345 106.661 6.80469 106.661 7.77471H107.661C107.661 6.59756 107.318 5.52418 106.637 4.56903L105.823 5.1497ZM103.525 3.38101C104.523 3.77411 105.28 4.36317 105.818 5.14339L106.641 4.57535C105.979 3.61561 105.055 2.90896 103.891 2.45059L103.525 3.38101ZM100.405 2.97156C101.802 2.97156 102.833 3.11857 103.531 3.38329L103.885 2.44832C103.022 2.1207 101.851 1.97156 100.405 1.97156V2.97156ZM93.56 2.97156H100.405V1.97156H93.56V2.97156ZM94.06 13.1056V2.47156H93.06V13.1056H94.06ZM101.396 12.6056H93.56V13.6056H101.396V12.6056ZM122.389 1.52777C123.87 1.52777 125.228 1.86917 126.473 2.54937L126.953 1.67185C125.555 0.908251 124.031 0.527766 122.389 0.527766V1.52777ZM118.306 2.54937C119.551 1.86917 120.909 1.52777 122.389 1.52777V0.527766C120.748 0.527766 119.224 0.908251 117.826 1.67185L118.306 2.54937ZM115.335 5.26741C116.068 4.12058 117.053 3.21629 118.301 2.55195L117.831 1.66927C116.437 2.4117 115.321 3.43246 114.492 4.72897L115.335 5.26741ZM114.273 8.99638C114.273 7.64568 114.627 6.40455 115.338 5.26245L114.489 4.73393C113.679 6.03518 113.273 7.4595 113.273 8.99638H114.273ZM114.273 13.2167V8.99638H113.273V13.2167H114.273ZM115.338 16.9506C114.627 15.8085 114.273 14.5674 114.273 13.2167H113.273C113.273 14.7536 113.679 16.1779 114.489 17.4792L115.338 16.9506ZM118.306 19.6915C117.056 19.0083 116.069 18.0937 115.335 16.9457L114.492 17.4841C115.32 18.7794 116.434 19.8084 117.826 20.569L118.306 19.6915ZM122.389 20.6853C120.907 20.6853 119.547 20.3521 118.301 19.6889L117.831 20.5716C119.228 21.3152 120.75 21.6853 122.389 21.6853V20.6853ZM126.478 19.6889C125.232 20.3521 123.872 20.6853 122.389 20.6853V21.6853C124.029 21.6853 125.551 21.3152 126.948 20.5716L126.478 19.6889ZM129.411 16.9506C128.698 18.0958 127.722 19.0089 126.473 19.6915L126.953 20.569C128.346 19.8078 129.451 18.7773 130.26 17.4792L129.411 16.9506ZM130.506 13.2167C130.506 14.5647 130.143 15.804 129.414 16.9457L130.257 17.4841C131.088 16.1824 131.506 14.7563 131.506 13.2167H130.506ZM130.506 8.99638V13.2167H131.506V8.99638H130.506ZM129.414 5.26741C130.143 6.40904 130.506 7.64842 130.506 8.99638H131.506C131.506 7.45677 131.088 6.03069 130.257 4.72897L129.414 5.26741ZM126.478 2.55195C127.724 3.21572 128.699 4.1185 129.411 5.26245L130.26 4.73393C129.451 3.43455 128.343 2.41227 126.948 1.66927L126.478 2.55195ZM114.384 13.2167C114.384 14.568 114.74 15.8249 115.449 16.9771L116.3 16.4531C115.688 15.4582 115.384 14.3827 115.384 13.2167H114.384ZM114.384 8.99638V13.2167H115.384V8.99638H114.384ZM115.451 5.26042C114.74 6.39597 114.384 7.64497 114.384 8.99638H115.384C115.384 7.83042 115.688 6.76565 116.298 5.79104L115.451 5.26042ZM118.371 2.5583C117.155 3.20904 116.18 4.11029 115.452 5.25804L116.297 5.79342C116.93 4.79399 117.776 4.01082 118.843 3.43989L118.371 2.5583ZM122.389 1.55508C120.948 1.55508 119.605 1.88928 118.368 2.55953L118.845 3.43866C119.93 2.85022 121.109 2.55508 122.389 2.55508V1.55508ZM126.384 2.56129C125.166 1.8893 123.831 1.55508 122.389 1.55508V2.55508C123.67 2.55508 124.837 2.8502 125.901 3.4369L126.384 2.56129ZM129.3 5.26373C128.591 4.11057 127.612 3.20743 126.375 2.55661L125.91 3.44158C126.994 4.01243 127.837 4.79372 128.449 5.78773L129.3 5.26373ZM130.395 8.99638C130.395 7.64183 130.027 6.3908 129.295 5.25471L128.454 5.79675C129.083 6.77082 129.395 7.83356 129.395 8.99638H130.395ZM130.395 13.2167V8.99638H129.395V13.2167H130.395ZM129.297 16.9828C130.028 15.83 130.395 14.5712 130.395 13.2167H129.395C129.395 14.3796 129.083 15.4531 128.452 16.4474L129.297 16.9828ZM126.381 19.6813C127.613 19.0135 128.589 18.1131 129.298 16.9804L128.451 16.4498C127.839 17.4273 126.994 18.2114 125.904 18.8022L126.381 19.6813ZM122.389 20.658C123.828 20.658 125.161 20.3343 126.378 19.6825L125.906 18.801C124.842 19.3709 123.673 19.658 122.389 19.658V20.658ZM118.374 19.6842C119.609 20.3343 120.95 20.658 122.389 20.658V19.658C121.106 19.658 119.926 19.3709 118.839 18.7993L118.374 19.6842ZM115.454 16.9861C116.181 18.1134 117.155 19.0118 118.365 19.6796L118.848 18.8039C117.777 18.213 116.929 17.427 116.295 16.4441L115.454 16.9861ZM136.248 1.44424V20.7688H137.248V1.44424H136.248ZM137.919 0.944242H136.748V1.94424H137.919V0.944242ZM152.844 14.1774L138.253 1.07225L137.584 1.81623L152.176 14.9214L152.844 14.1774ZM152.01 1.44424V14.5494H153.01V1.44424H152.01ZM153.621 0.944242H152.51V1.94424H153.621V0.944242ZM154.121 20.7688V1.44424H153.121V20.7688H154.121ZM152.51 21.2688H153.621V20.2688H152.51V21.2688ZM152.01 15.9932V20.7688H153.01V15.9932H152.01ZM137.524 3.14824L152.175 16.3645L152.845 15.622L138.193 2.40571L137.524 3.14824ZM138.359 20.7688V2.77698H137.359V20.7688H138.359ZM136.748 21.2688H137.859V20.2688H136.748V21.2688ZM167.439 1.52777C168.919 1.52777 170.277 1.86917 171.522 2.54937L172.002 1.67185C170.604 0.90825 169.08 0.527766 167.439 0.527766V1.52777ZM163.355 2.54937C164.6 1.86917 165.958 1.52777 167.439 1.52777V0.527766C165.797 0.527766 164.273 0.908251 162.875 1.67185L163.355 2.54937ZM160.384 5.26741C161.117 4.12058 162.102 3.21629 163.35 2.55195L162.88 1.66927C161.486 2.4117 160.37 3.43247 159.541 4.72897L160.384 5.26741ZM159.322 8.99638C159.322 7.64569 159.676 6.40455 160.387 5.26245L159.538 4.73393C158.728 6.03517 158.322 7.4595 158.322 8.99638H159.322ZM159.322 13.2167V8.99638H158.322V13.2167H159.322ZM160.387 16.9506C159.676 15.8085 159.322 14.5674 159.322 13.2167H158.322C158.322 14.7536 158.728 16.1779 159.538 17.4792L160.387 16.9506ZM163.355 19.6915C162.105 19.0083 161.118 18.0937 160.384 16.9457L159.541 17.4841C160.369 18.7794 161.484 19.8084 162.875 20.569L163.355 19.6915ZM167.439 20.6853C165.956 20.6853 164.596 20.3521 163.35 19.6889L162.88 20.5716C164.277 21.3152 165.799 21.6853 167.439 21.6853V20.6853ZM171.527 19.6889C170.281 20.3521 168.921 20.6853 167.439 20.6853V21.6853C169.078 21.6853 170.6 21.3152 171.997 20.5716L171.527 19.6889ZM174.46 16.9506C173.747 18.0958 172.771 19.0089 171.522 19.6915L172.002 20.569C173.395 19.8078 174.501 18.7773 175.309 17.4792L174.46 16.9506ZM175.555 13.2167C175.555 14.5647 175.192 15.804 174.463 16.9457L175.306 17.4841C176.137 16.1824 176.555 14.7563 176.555 13.2167H175.555ZM175.555 8.99638V13.2167H176.555V8.99638H175.555ZM174.463 5.26741C175.192 6.40903 175.555 7.64842 175.555 8.99638H176.555C176.555 7.45677 176.137 6.03069 175.306 4.72897L174.463 5.26741ZM171.527 2.55194C172.774 3.21572 173.748 4.1185 174.46 5.26245L175.309 4.73393C174.5 3.43455 173.392 2.41227 171.997 1.66927L171.527 2.55194ZM159.433 13.2167C159.433 14.568 159.789 15.8249 160.498 16.9771L161.349 16.4531C160.737 15.4582 160.433 14.3827 160.433 13.2167H159.433ZM159.433 8.99638V13.2167H160.433V8.99638H159.433ZM160.5 5.26042C159.789 6.39597 159.433 7.64497 159.433 8.99638H160.433C160.433 7.83042 160.737 6.76565 161.347 5.79104L160.5 5.26042ZM163.42 2.5583C162.204 3.20904 161.229 4.11029 160.501 5.25804L161.346 5.79342C161.979 4.79399 162.825 4.01082 163.892 3.43989L163.42 2.5583ZM167.439 1.55508C165.997 1.55508 164.654 1.88928 163.417 2.55953L163.894 3.43866C164.979 2.85022 166.158 2.55508 167.439 2.55508V1.55508ZM171.433 2.56129C170.215 1.8893 168.88 1.55508 167.439 1.55508V2.55508C168.719 2.55508 169.886 2.8502 170.95 3.4369L171.433 2.56129ZM174.349 5.26372C173.64 4.11057 172.661 3.20743 171.424 2.55661L170.959 3.44158C172.044 4.01243 172.886 4.79371 173.498 5.78774L174.349 5.26372ZM175.444 8.99638C175.444 7.64182 175.077 6.3908 174.344 5.25472L173.503 5.79675C174.132 6.77082 174.444 7.83357 174.444 8.99638H175.444ZM175.444 13.2167V8.99638H174.444V13.2167H175.444ZM174.346 16.9828C175.077 15.83 175.444 14.5712 175.444 13.2167H174.444C174.444 14.3796 174.132 15.4531 173.501 16.4474L174.346 16.9828ZM171.43 19.6813C172.662 19.0135 173.638 18.1131 174.347 16.9804L173.5 16.4498C172.888 17.4273 172.043 18.2114 170.953 18.8022L171.43 19.6813ZM167.439 20.658C168.878 20.658 170.21 20.3343 171.427 19.6825L170.955 18.801C169.891 19.3709 168.722 19.658 167.439 19.658V20.658ZM163.423 19.6842C164.658 20.3343 166 20.658 167.439 20.658V19.658C166.155 19.658 164.975 19.3709 163.888 18.7993L163.423 19.6842ZM160.503 16.9861C161.23 18.1134 162.204 19.0118 163.414 19.6796L163.897 18.8039C162.826 18.213 161.978 17.427 161.344 16.4441L160.503 16.9861ZM187.533 21.2688H188.644V20.2688H187.533V21.2688ZM187.033 1.44424V20.7688H188.033V1.44424H187.033ZM188.734 0.944242H187.533V1.94424H188.734V0.944242ZM196.456 13.0944L189.16 1.18309L188.308 1.7054L195.603 13.6167L196.456 13.0944ZM202.868 1.18387L195.603 13.0952L196.457 13.6159L203.722 1.70462L202.868 1.18387ZM204.406 0.944242H203.295V1.94424H204.406V0.944242ZM204.906 20.7688V1.44424H203.906V20.7688H204.906ZM203.295 21.2688H204.406V20.2688H203.295V21.2688ZM202.795 3.49887V20.7688H203.795V3.49887H202.795ZM196.966 14.7829L203.722 3.76013L202.869 3.23761L196.114 14.2604L196.966 14.7829ZM195.489 15.0217H196.54V14.0217H195.489V15.0217ZM188.218 3.62144L195.063 14.7831L195.915 14.2603L189.07 3.09864L188.218 3.62144ZM189.144 20.7688V3.36004H188.144V20.7688H189.144ZM211.289 1.94424H226V0.944242H211.289V1.94424ZM211.789 20.7688V1.44424H210.789V20.7688H211.789ZM226 20.2688H211.289V21.2688H226V20.2688ZM225.5 19.7415V20.7688H226.5V19.7415H225.5ZM212.399 20.2415H226V19.2415H212.399V20.2415ZM211.899 11.3287V19.7415H212.899V11.3287H211.899ZM224.229 10.8287H212.399V11.8287H224.229V10.8287ZM223.729 10.3014V11.3287H224.729V10.3014H223.729ZM212.399 10.8014H224.229V9.80135H212.399V10.8014ZM211.899 2.47156V10.3014H212.899V2.47156H211.899ZM226 1.97156H212.399V2.97156H226V1.97156ZM225.5 1.44424V2.47156H226.5V1.44424H225.5ZM182.401 1.01831H181.2V2.01831H182.401V1.01831ZM182.901 6.70116V1.51831H181.901V6.70116H182.901ZM181.2 7.20116H182.401V6.20116H181.2V7.20116ZM180.7 1.51831V6.70116H181.7V1.51831H180.7Z" fill="black"/>
</svg>
